HIERARCHY
ROOT BEC
{
	OFFSET 0 0 0
	CHANNELS 6 Xposition Yposition Zposition Zrotation Xrotation Yrotation
	JOINT ULW
	{
		OFFSET 0 57.846 41.889
		CHANNELS 3 Zrotation Xrotation Yrotation
		JOINT OLW
		{
			OFFSET 0 -32.4844 86.973
			CHANNELS 3 Zrotation Xrotation Yrotation
			JOINT UBW
			{
				OFFSET 0 17.8136 104.786
				CHANNELS 3 Zrotation Xrotation Yrotation
				JOINT OBW
				{
					OFFSET 0 38.6661 128.887
					CHANNELS 3 Zrotation Xrotation Yrotation
					JOINT UHW
					{
						OFFSET 0 19.9177 113.169
						CHANNELS 3 Zrotation Xrotation Yrotation
						JOINT BRK
						{
							OFFSET 0 -15.1469 66.756
							CHANNELS 3 Zrotation Xrotation Yrotation
							JOINT SB.R
							{
								OFFSET -24.9335 -90.294 0
								CHANNELS 3 Zrotation Xrotation Yrotation
								JOINT OA.R
								{
									OFFSET -156.17 61.835 -27.537
									CHANNELS 3 Zrotation Xrotation Yrotation
									JOINT UA.R
									{
										OFFSET -277.962 0 -49.0122
										CHANNELS 3 Zrotation Xrotation Yrotation
										JOINT HA.R
										{
											OFFSET -254.695 0 -44.9096
											CHANNELS 3 Zrotation Xrotation Yrotation
											JOINT FI.R
											{
												OFFSET -87.3042 0 -15.3941
												CHANNELS 3 Zrotation Xrotation Yrotation
												End Site
												{
													OFFSET -97.0055 0 -17.1047
												}
											}
										}
									}
								}
							}
							JOINT SB.L
							{
								OFFSET 24.9335 -90.294 0
								CHANNELS 3 Zrotation Xrotation Yrotation
								JOINT OA.L
								{
									OFFSET 156.17 61.835 -27.537
									CHANNELS 3 Zrotation Xrotation Yrotation
									JOINT UA.L
									{
										OFFSET 277.962 0 -49.0122
										CHANNELS 3 Zrotation Xrotation Yrotation
										JOINT HA.L
										{
											OFFSET 254.695 0 -44.9096
											CHANNELS 3 Zrotation Xrotation Yrotation
											JOINT FI.L
											{
												OFFSET 87.3042 0 -15.3941
												CHANNELS 3 Zrotation Xrotation Yrotation
												End Site
												{
													OFFSET 97.0055 0 -17.1047
												}
											}
										}
									}
								}
							}
						}
						JOINT OHW
						{
							OFFSET 0 -33.0717 146.335
							CHANNELS 3 Zrotation Xrotation Yrotation
							JOINT KO
							{
								OFFSET 0 -28.7427 98.908
								CHANNELS 3 Zrotation Xrotation Yrotation
								JOINT SEH
								{
									OFFSET 0 -106.726 37.9271
									CHANNELS 3 Zrotation Xrotation Yrotation
									End Site
									{
										OFFSET 0 -475.594 -149.954
									}
								}
							}
						}
					}
				}
			}
		}
	}
	JOINT OS.R
	{
		OFFSET -80.785 0 0
		CHANNELS 3 Zrotation Xrotation Yrotation
		JOINT US.R
		{
			OFFSET 0 0 -428.745
			CHANNELS 3 Zrotation Xrotation Yrotation
			JOINT FU.R
			{
				OFFSET 0 0 -400.067
				CHANNELS 3 Zrotation Xrotation Yrotation
				JOINT FB.R
				{
					OFFSET 0 -141.624 -71.809
					CHANNELS 3 Zrotation Xrotation Yrotation
					End Site
					{
						OFFSET 0 -69.815 0
					}
				}
			}
		}
	}
	JOINT OS.L
	{
		OFFSET 80.785 0 0
		CHANNELS 3 Zrotation Xrotation Yrotation
		JOINT US.L
		{
			OFFSET 0 0 -428.745
			CHANNELS 3 Zrotation Xrotation Yrotation
			JOINT FU.L
			{
				OFFSET 0 0 -400.067
				CHANNELS 3 Zrotation Xrotation Yrotation
				JOINT FB.L
				{
					OFFSET 0 -141.624 -71.809
					CHANNELS 3 Zrotation Xrotation Yrotation
					End Site
					{
						OFFSET 0 -69.815 0
					}
				}
			}
		}
	}
}
MOTION
Frames: 12
Frame Time: 0.4
1441.82 2428.76 840.791 -87.9502 0.0709195 1.981 2.60128e-17 0 -0 2.60128e-17 0 -0 2.60128e-17 0 -0 2.60128e-17 0 -0 2.60128e-17 0 -0 2.60128e-17 0 -0 2.60128e-17 0 -5.21392 -23.1811 -4.85681 -61.5454 15.0762 -2.62593 0.347548 6.36111e-15 -1.59028e-15 -6.36111e-15 6.36111e-15 -1.59028e-15 -6.36111e-15 2.60128e-17 0 4.52637 -57.4422 14.1427 56.3612 -0.394977 -0.0696446 -0.000240054 3.97569e-15 1.59028e-15 9.54166e-15 3.97569e-15 1.59028e-15 9.54166e-15 2.60128e-17 0 -0 2.60128e-17 0 -0 8.85213e-17 1.80149e-15 -0 -31.3647 0.301339 3.13647 6.65929e-15 -3.97569e-16 -7.95139e-16 6.65929e-15 -3.97569e-16 -7.95139e-16 6.65929e-15 -3.97569e-16 -7.95139e-16 18.5565 0.29376 -5.05514 5.59082e-16 -3.97569e-16 -3.97569e-16 5.59082e-16 -3.97569e-16 -3.97569e-16 5.59082e-16 -3.97569e-16 -3.97569e-16
1434.75 2415.14 823.587 -91.5571 -0.239368 0.371 3.84369e-17 -4.96962e-17 4.96962e-17 3.84369e-17 -4.96962e-17 4.96962e-17 0.573952 3.43127 -0.664638 1.55586 6.16557 -0.912259 1.03225 -2.71412 -1.15452 -1.2921e-15 3.18055e-15 -2.38542e-15 -1.2921e-15 3.18055e-15 -6.07335 -22.4609 -6.96867 -58.1811 17.6216 -3.05551 0.473719 7.95139e-15 8.74653e-15 -2.54444e-14 7.95139e-15 8.74653e-15 -2.54444e-14 1.77617 3.18055e-15 12.6624 -41.347 12.7765 47.5163 -12.3065 -2.15232 -0.232068 -6.95746e-16 -4.91992e-15 9.54166e-15 -6.95746e-16 -4.91992e-15 9.54166e-15 0.515374 1.97272 2.73257 0.688984 4.20635 1.95496 -1.59028e-15 9.54166e-15 1.98785e-15 -57.5264 -6.51869 4.06539 24.7439 9.90748 -4.53392 1.00176e-14 -3.83882 3.98463e-16 9.99514e-15 1.98785e-16 7.95139e-16 9.50044 1.25972 -3.23163 8.45773 5.2142 -0.774219 6.12085e-15 -5.95876 -3.19783e-15 6.08778e-15 -4.34841e-16 -3.18055e-15
1429.54 2415.81 830.492 -90.8936 -0.828821 0.477 -0.00245343 0.0528478 -0.0696233 -0.000320024 0.00869851 -0.00376814 0.399484 3.17385 -0.699569 1.08807 5.62114 -0.881272 0.684788 -2.25727 -0.896853 0.000539903 0.0492878 -0.000445835 -1.5065 0.0138311 -4.17819 -23.4814 -7.68183 -61.8644 17.463 -3.58574 0.841792 -0.00402685 -0.0228374 -8.02528e-07 1.69647e-09 9.62114e-09 3.18055e-15 2.75192 -0.0904319 9.59983 -40.9875 8.5807 51.1736 -9.32566 -1.75819 -0.462343 0.00676066 -0.0383416 2.26207e-06 -6.62585e-09 3.7577e-08 -6.36111e-15 0.786993 3.68013 3.08837 1.06435 5.05835 2.23187 -0.0015724 -0.0294148 -0.000276055 -54.8133 -5.76776 5.45537 22.6615 10.3575 -5.31439 -0.0513326 -6.38464 0.0909393 -0.000254668 -0.038802 0.00153643 9.3356 2.12266 -3.38911 5.35599 5.535 -0.699908 -0.00603582 -5.82379 -0.00899125 -3.39268e-05 0.0978586 -0.00919797
1423.4 2415.3 832.535 -91.1409 -1.19375 0.568 0.0010371 0.0962895 -0.146525 -0.00134074 0.0374254 -0.0200723 0.387134 3.65996 -0.878964 1.0216 6.45253 -1.06222 0.699592 -2.44711 -1.07116 0.000598711 0.0795151 -0.000274953 -2.94225 0.00862432 -4.0576 -20.6942 -8.76818 -61.8912 16.8966 -3.66752 1.11693 -0.00499074 -0.0283039 -1.2327e-06 5.35551e-09 3.03726e-08 3.18055e-15 4.2669 -0.145168 9.57413 -38.3518 6.22675 51.9842 -10.355 -1.96468 -0.229091 0.00428164 -0.0242824 9.07297e-07 9.55675e-10 -5.4199e-09 1.27222e-14 1.24374 4.80779 3.51789 1.76799 6.17699 2.48831 -0.00268474 -0.0427585 0.000157129 -57.1964 -6.08632 5.81214 25.929 11.9093 -6.13584 -0.0535339 -7.78511 -0.00157913 0.000200833 -0.0786433 0.00177973 7.10349 2.56769 -3.46151 5.19867 7.18547 -0.688975 -0.0101943 -7.86045 -0.0852462 1.39599e-05 0.175971 -0.0101936
1417.24 2418.27 836.084 -91.094 -1.37543 1.197 -0.00219032 0.127618 -0.283709 -0.00252892 0.0894036 -0.0552947 0.401835 3.79699 -1.0957 0.981342 6.68068 -1.25997 0.737926 -2.37121 -1.27382 0.000970237 0.126382 0.000874473 -4.56167 0.0150531 -4.59052 -15.4304 -9.57444 -60.4965 15.3968 -3.33588 1.25519 -0.00561252 -0.0318302 -1.55899e-06 6.18367e-09 3.50693e-08 -0 5.78802 -0.248524 9.30459 -37.788 5.0584 53.3345 -10.9833 -2.03782 -0.261347 0.00573321 -0.0325147 1.62676e-06 1.03496e-09 -5.86959e-09 1.59028e-14 1.7324 5.26431 3.50497 2.49351 6.56613 2.42879 -0.0023468 -0.0331984 0.000783361 -56.9466 -5.01863 5.86575 26.7047 11.8333 -6.18597 -0.0504017 -7.70894 -0.0663051 0.000368209 -0.133755 0.00270967 6.15909 2.45554 -4.2684 4.38667 8.91184 -0.586218 -0.0158767 -10.2729 -0.151501 0.000334106 0.254859 -0.00764311
1411.45 2423.68 838.579 -91.1321 -1.34635 2.157 -0.0077879 0.129723 -0.496254 -0.00227738 0.145257 -0.105898 0.541398 3.87839 -1.3976 1.22596 6.82389 -1.54168 1.01297 -2.25484 -1.59985 0.00141765 0.18083 0.00269321 -5.71585 0.0160557 -5.35821 -9.75081 -9.74641 -58.1292 13.9476 -2.53933 1.00107 -0.0051375 -0.0291362 -1.30627e-06 -3.06206e-10 -1.73661e-09 1.90833e-14 6.88182 -0.354445 9.6457 -37.9103 4.82754 54.2251 -12.0985 -2.20913 -0.277192 0.00568109 -0.032219 1.59732e-06 9.34794e-10 -5.30149e-09 -9.54166e-15 2.06728 5.25175 3.53152 2.9828 6.59806 2.41757 -0.000290092 0.00747954 0.00107999 -56.2948 -3.43043 5.35253 26.8388 11.3541 -5.82211 -0.0286 -7.04442 -0.175122 0.000331459 -0.198618 0.00247679 6.6849 1.53005 -5.69502 3.34266 11.271 -0.304052 -0.0171597 -13.037 -0.266955 0.000361597 0.313169 -0.00430585
1406.58 2430.62 839.87 -91.1942 -1.18669 3.283 -0.011655 0.107854 -0.770515 9.85143e-05 0.167201 -0.150827 0.783822 3.91535 -1.77962 1.71277 6.89899 -1.89453 1.48598 -2.07769 -2.00958 0.00185698 0.2376 0.00367135 -5.86616 -4.1435e-05 -5.37888 -5.86553 -9.17762 -56.5961 13.3842 -1.6483 0.538693 -0.00396643 -0.0224948 -7.78626e-07 -1.09272e-08 -6.19712e-08 -2.22639e-14 7.24233 -0.434598 10.4057 -38.3596 5.01917 54.8311 -13.3014 -2.41243 -0.317825 0.00611814 -0.0346977 1.85254e-06 1.0436e-09 -5.91861e-09 9.54166e-15 2.18839 5.17107 3.86534 3.14223 6.53607 2.65397 0.00249636 0.0556686 0.000967549 -54.385 -1.60717 4.44865 25.852 11.1563 -5.2371 0.00578462 -7.16552 -0.321943 0.000341348 -0.260023 0.000414746 8.91194 -0.414368 -7.48992 1.7066 14.2756 0.184624 -0.0120705 -15.1524 -0.33686 0.000211228 0.331644 -0.00389711
1402.53 2437.4 840.301 -91.073 -0.957775 4.426 -0.0143214 0.0860247 -1.06168 0.00292486 0.125874 -0.161108 1.04922 3.95313 -2.22878 2.25212 7.00669 -2.32092 1.98766 -1.90189 -2.49705 0.00174425 0.293124 0.0034252 -5.03038 -0.0310299 -4.19685 -3.57808 -8.02428 -56.6208 13.8561 -1.08731 0.155126 -0.00338807 -0.0192147 -5.68111e-07 -2.06092e-08 -1.16881e-07 -9.54166e-15 7.24698 -0.469843 11.5829 -39.0171 5.44745 55.1688 -14.5771 -2.6474 -0.380376 0.00674038 -0.0382266 2.24852e-06 1.13802e-09 -6.45406e-09 3.18055e-15 2.20273 5.36901 4.50175 3.12537 6.65413 3.11427 0.00509675 0.0863722 0.000365228 -50.4998 0.138627 3.2907 23.5512 11.7061 -4.51897 0.0457146 -8.91606 -0.472877 0.000245374 -0.299744 -0.00017961 11.9637 -3.48104 -9.18857 -0.269449 17.8262 0.797973 -0.00696427 -16.1127 -0.353389 0.000401362 0.298897 -0.00704433
1398.73 2442.18 840.596 -90.3669 -0.605912 5.453 -0.0169215 0.0890076 -1.31906 0.00391212 0.0301099 -0.128825 1.22654 3.96497 -2.68483 2.59809 7.10339 -2.78026 2.30261 -1.81168 -3.00695 0.000512124 0.352047 0.00358319 -3.92688 -0.0543444 -2.11051 -1.01178 -6.34135 -57.7009 15.0637 -1.11087 -0.128395 -0.00109375 -0.00620294 -5.92055e-08 -1.95975e-07 -1.11143e-06 -9.54166e-15 7.58721 -0.451153 13.0256 -39.8972 6.06926 55.3601 -15.9625 -2.91103 -0.513308 0.00698114 -0.039592 2.41202e-06 7.47618e-10 -4.23986e-09 -2.22639e-14 2.16435 5.89602 5.21086 3.03369 7.00123 3.62464 0.00583304 0.0821916 -0.000577872 -44.957 1.49882 2.02372 20.045 12.8984 -3.80686 0.0747366 -12.051 -0.457379 -0.000707052 -0.299873 0.00390866 14.6353 -7.49486 -10.2726 -1.91314 21.3809 1.28556 -0.0136766 -15.8983 -0.350198 0.00100737 0.225518 -0.0107962
1394.47 2443.48 840.885 -88.6851 0.0270268 6.192 -0.0129892 0.119003 -1.51341 0.00303405 -0.0804628 -0.07159 1.23949 3.9027 -3.051 2.61648 7.07598 -3.18158 2.32421 -1.90254 -3.43745 -0.00199803 0.421634 0.00588741 -3.52011 -0.0657206 -0.0845061 3.73059 -4.1669 -58.5879 16.8542 -1.81303 -0.423459 0.00962359 0.0545781 -4.58355e-06 -1.89251e-06 -1.0733e-05 -1.84472e-13 8.6188 -0.366548 14.3593 -40.9983 6.81431 55.6608 -17.4419 -3.16474 -0.679311 0.00481409 -0.0273021 1.14698e-06 -2.97216e-09 1.6856e-08 3.18055e-15 1.91823 6.45786 5.83199 2.66918 7.38703 4.08716 0.00341329 0.0346564 -0.000896152 -39.7395 2.24116 0.955124 16.3129 14.0945 -3.30295 0.0834413 -15.4612 -0.134497 -0.00231634 -0.255329 0.00955212 15.9712 -11.9399 -10.34 -2.11389 23.9135 1.17494 -0.0567703 -14.6844 -0.264347 0.00118833 0.143652 -0.00999822
1388.85 2440.62 840.691 -85.9385 1.01009 6.421 0.00377557 0.155873 -1.63825 0.00240392 -0.166874 -0.0250965 1.09794 3.74092 -3.21763 2.35061 6.82909 -3.39677 2.10561 -2.21675 -3.66325 -0.00522943 0.510532 0.0097865 -4.43789 -0.0793224 0.843388 11.063 -1.49265 -58.269 19.451 -2.99437 -0.681058 0.0346962 0.196771 -5.95788e-05 -7.02645e-06 -3.9849e-05 -2.4363e-12 10.0476 -0.226344 15.0803 -42.3932 7.58732 56.4049 -18.781 -3.3512 -0.775681 -0.0023144 0.0131256 2.65098e-07 -1.8819e-08 1.06728e-07 -0 1.2151 6.77709 6.40242 1.67899 7.61383 4.56039 -0.00271437 -0.0514269 0.000199849 -37.2392 2.43729 0.574305 13.7161 14.5285 -3.0606 0.0674253 -17.8397 0.322358 -0.00328196 -0.18005 0.0112617 15.6087 -15.9884 -9.28344 -0.0876295 24.1927 0.194299 -0.139579 -12.5468 -0.0424104 -5.2187e-05 0.0945747 -0.00159572
1381.15 2433.59 839.374 -82.5509 2.21335 6.005 0.0262449 0.179132 -1.70997 0.00282182 -0.219116 -0.0205683 0.881649 3.50646 -3.13747 1.94704 6.36383 -3.32634 1.77444 -2.71639 -3.61397 -0.00706562 0.608231 0.0124821 -6.53205 -0.087167 0.315563 19.5614 1.7591 -56.7103 23.0823 -4.0944 -0.620007 0.067735 0.384139 -0.000227065 -1.63378e-05 -9.26563e-05 -1.3212e-11 11.2804 -0.0674936 14.9338 -43.8885 8.36138 57.8288 -19.7421 -3.46479 -0.795818 -0.0137443 0.0779478 9.34919e-06 -6.02674e-08 3.41794e-07 -9.54166e-15 0.0164806 6.84993 7.05707 -0.000270088 7.65348 5.1433 -0.0113273 -0.133626 0.000609427 -38.0953 2.20899 1.10994 12.7706 14.1252 -2.98544 0.00179721 -18.4707 0.582478 -0.00286845 -0.0991739 0.00836706 13.8701 -18.8969 -7.32165 3.7495 21.462 -1.15106 -0.178975 -9.38618 0.173895 -0.00224081 0.0979457 0.00882339
